# xmcd
#
# Track frame offsets:
#	150
#	13934
#	27865
#	38832
#	63167
#	77366
#	91575
#	104661
#	117283
#	127836
#	137748
#	154991
#	170618
#	185614
#	200426
#	212548
#	229753
#	239061
#	256938
#	266596
#	283871
#	301841
#
# Disc length: 4314 seconds
#
# Revision: 1
# Processed by: cddbd v1.5.1PL2 Copyright (c) Steve Scherf et al.
# Submitted via: Rip'N'TagIt 1.3.0.1 
#
DISCID=2e10d816
DTITLE=David Allan Coe - Underground Album
DYEAR=1982
DGENRE=country
TTITLE0=Rock N Roll Fever
TTITLE1=Panheads Forever
TTITLE2=Nigger Fucker
TTITLE3=Coffee
TTITLE4=One Monkey
TTITLE5=One More Time
TTITLE6=Little Susie Shallow Throat
TTITLE7=Pick'Em,Lick'Em, Stick'Em
TTITLE8=Don't Bite The Dick
TTITLE9=Fuckin' In The Butt
TTITLE10=Nothing Sacred
TTITLE11=Pussy Whipped Again
TTITLE12=Cum Stains On The Pillow
TTITLE13=Linda Lovelace
TTITLE14=Fuck Anita Bryant
TTITLE15=Jimmy Buffet Don't Live in Keywest Anymore
TTITLE16=Three Biggest Lies
TTITLE17=Whips n' Things
TTITLE18=Rails
TTITLE19=Masterbation Blues
TTITLE20=Dakota The Dancing Bear 
TTITLE21=If That Ain't Country
EXTD=Strong Adult Content\n\n*branded by wildcard*
EXTT0=
EXTT1=
EXTT2=
EXTT3=
EXTT4=
EXTT5=
EXTT6=
EXTT7=
EXTT8=
EXTT9=
EXTT10=
EXTT11=
EXTT12=
EXTT13=
EXTT14=
EXTT15=
EXTT16=
EXTT17=
EXTT18=
EXTT19=
EXTT20=
EXTT21=
PLAYORDER=
